Land_normalized_Motion_pl06
version=1
nRows=20
nColumns=43
inDegrees=yes
endheader
time		pelvis_tilt		pelvis_list		pelvis_rotation		pelvis_tx		pelvis_ty		pelvis_tz		hip_flexion_r		hip_adduction_r		hip_rotation_r		knee_angle_r		ankle_angle_r		subtalar_angle_r		mtp_angle_r		hip_flexion_l		hip_adduction_l		hip_rotation_l		knee_angle_l		ankle_angle_l		subtalar_angle_l		mtp_angle_l		lumbar_extension		lumbar_bending		lumbar_rotation		neck_flexion		neck_lateral_bending		neck_rotation		arm_flex_r		arm_add_r		arm_rot_r		elbow_flex_r		pro_sup_r		wrist_flex_r		wrist_dev_r		hand_finger_flex_r		arm_flex_l		arm_add_l		arm_rot_l		elbow_flex_l		pro_sup_l		wrist_flex_l		wrist_dev_l		hand_finger_flex_l		
1.045000		1.243756		27.239097		88.467128		0.005523		1.011264		0.604430		9.922094		-3.819006		-9.519352		-42.081241		-28.253415		-1.941528		18.785246		12.052570		-5.537141		-4.556648		-43.170480		-24.569958		-12.169707		33.126961		-59.382620		-5.872894		-8.935674		-27.750601		-1.046543		8.709859		-51.577329		-20.312226		-22.844346		33.205145		97.757592		-14.162351		10.403508		58.133155		-46.477397		-18.329851		-18.589882		43.722405		124.379779		-28.870958		-0.635023		83.369215		
1.047904		1.325572		27.131658		88.754678		0.004560		0.998213		0.600590		11.013285		-3.853964		-9.093473		-44.227010		-28.341342		-1.790825		18.684147		13.312557		-5.460214		-3.954576		-45.599353		-24.123426		-11.590457		33.175145		-59.520661		-5.442135		-8.980824		-26.907912		-1.288204		8.452388		-50.502308		-20.351143		-22.204681		33.177531		98.353434		-13.422855		9.977826		58.034123		-45.404739		-18.443075		-18.443644		43.298983		125.172863		-29.107313		-0.875615		83.624847		
1.050808		1.331149		27.577243		88.922468		0.003867		0.986321		0.596751		11.357248		-3.947388		-8.640772		-45.973078		-28.655126		-1.775857		18.630823		13.749719		-5.324814		-3.650081		-47.642410		-24.022790		-11.423864		33.206094		-60.280041		-5.210681		-8.976097		-25.787095		-1.258415		8.373215		-49.331009		-20.255047		-21.723294		33.211508		98.520482		-13.173721		9.879952		58.020431		-44.243365		-18.629090		-18.307752		42.904409		125.418485		-29.160569		-0.877341		83.673066		
1.053712		1.342858		27.692253		89.186750		0.002955		0.973633		0.592820		12.079818		-4.060059		-8.279110		-47.603745		-29.213161		-1.771746		18.508794		14.641816		-5.178414		-3.260400		-49.726882		-23.993925		-10.961080		33.173489		-60.651258		-4.863216		-9.015420		-24.852715		-1.438929		8.124143		-48.238364		-20.332432		-20.834980		33.307306		98.492833		-12.660996		9.399348		58.053781		-43.102810		-18.827718		-18.052413		42.556865		125.924343		-29.446844		-1.019451		83.835469		
1.056616		1.355395		27.851772		89.407441		0.002062		0.960954		0.588776		12.681282		-4.175074		-7.951763		-48.982613		-29.698197		-1.788093		18.421567		15.418097		-5.038120		-2.972984		-51.620438		-24.112581		-10.558241		33.105970		-61.046773		-4.561003		-9.010206		-23.989384		-1.483057		7.930830		-47.127596		-20.394236		-20.024029		33.431348		98.318344		-12.280732		8.950069		58.069460		-41.936372		-19.017036		-17.870431		42.247763		126.325592		-29.737587		-1.131193		83.981312		
1.059520		1.345372		27.843994		89.679508		0.001152		0.947914		0.584643		13.427522		-4.289418		-7.613672		-50.176760		-30.078614		-1.782874		18.632934		16.364305		-4.863794		-2.711334		-53.353652		-24.396080		-10.195003		32.776854		-61.256943		-4.252928		-8.999569		-23.133568		-1.442480		7.698237		-46.013830		-20.656211		-18.340787		33.441550		96.889893		-12.150350		8.097801		57.975234		-40.711179		-19.232218		-17.645944		41.882939		126.799982		-30.485862		-1.324805		84.344165		
1.062424		1.341167		28.172742		89.814024		0.000505		0.935569		0.580617		13.705154		-4.360807		-7.212224		-51.168083		-30.083081		-1.709534		18.794819		16.796491		-4.729878		-2.603303		-54.732132		-24.829247		-9.910535		32.661989		-61.846922		-4.050486		-9.005438		-22.103979		-1.510655		7.581139		-44.836365		-20.750538		-17.537693		33.740557		96.440188		-12.109381		7.887774		57.949203		-39.528433		-19.432561		-17.480044		41.685949		126.962173		-30.681222		-1.345306		84.451433		
1.065328		1.200021		28.175204		90.065885		-0.000116		0.922576		0.576504		14.331206		-4.547452		-6.724383		-52.248756		-29.237489		-0.913754		20.548439		17.555722		-4.479947		-2.582551		-55.932090		-25.105087		-9.556813		32.431340		-62.086074		-3.907661		-9.137260		-21.174096		-1.538158		7.437525		-43.641622		-21.297432		-14.713202		33.871120		93.048715		-12.916611		7.246740		57.717850		-38.340683		-19.692365		-17.163604		41.431754		127.123825		-31.642198		-1.416951		84.906720		
1.068232		1.234844		28.375005		90.210333		-0.000654		0.910075		0.572641		14.637733		-4.452529		-6.158968		-53.298131		-27.462871		-0.395045		21.404514		18.012967		-4.349576		-2.430226		-56.942833		-25.099291		-9.163409		32.628665		-62.552889		-3.671496		-9.062770		-20.140111		-1.523992		7.241344		-42.450382		-21.457125		-13.682954		34.319878		92.343928		-12.991877		7.116655		57.738847		-37.029385		-19.961688		-17.001928		41.285622		127.251074		-31.812892		-1.401809		84.936547		
1.071136		1.213685		28.287226		90.333175		-0.001154		0.896962		0.568681		15.306922		-4.457522		-5.555279		-54.755657		-24.333811		1.279007		23.407658		18.776795		-4.147979		-2.274531		-58.043734		-24.221799		-8.475165		33.406593		-62.685843		-3.523191		-9.054498		-19.233730		-1.544054		7.065375		-41.171469		-21.902441		-11.626217		34.605972		90.013672		-13.598826		6.703590		57.664131		-35.750282		-20.218724		-16.793936		41.123001		127.475187		-32.342023		-1.394473		85.085644		
1.074040		1.319860		28.277639		90.405252		-0.001572		0.884180		0.564974		15.790269		-4.226711		-4.884123		-56.319185		-20.306139		2.596508		24.855922		19.400390		-4.022856		-2.037236		-59.205820		-22.478747		-7.995616		34.303524		-62.930509		-3.313218		-8.934013		-18.295769		-1.485729		6.929223		-39.850067		-22.253121		-10.037477		35.000690		88.470265		-14.049203		6.477881		57.641659		-34.408705		-20.462951		-16.692619		41.044607		127.653367		-32.670255		-1.356790		85.197920		
1.076944		1.452320		28.218688		90.437504		-0.001965		0.871444		0.561378		16.316077		-3.965566		-4.227341		-58.149057		-15.482528		4.108474		25.716658		20.015164		-3.892793		-1.757710		-60.506938		-19.665290		-7.486148		35.160397		-63.139581		-3.114037		-8.794421		-17.355864		-1.401857		6.793200		-38.444336		-22.564898		-8.758573		35.398350		87.385393		-14.342154		6.295944		57.599020		-33.015951		-20.706345		-16.620329		40.981806		127.865612		-32.937348		-1.298900		85.259147		
1.079848		1.556867		28.105662		90.442402		-0.002422		0.858740		0.557904		16.899099		-3.765087		-3.656053		-60.196029		-10.240778		5.628381		25.973109		20.642785		-3.734282		-1.539286		-62.012065		-15.883469		-6.898140		35.966903		-63.309590		-2.947691		-8.638887		-16.351842		-1.364839		6.703126		-36.924276		-22.918316		-7.339026		35.688395		86.121771		-14.753420		6.145369		57.539361		-31.555754		-20.928659		-16.574578		40.966916		128.122710		-33.252326		-1.202672		85.369517		
1.082753		1.691024		28.039432		90.389979		-0.002857		0.846284		0.554492		17.403046		-3.564325		-3.212893		-62.322274		-4.905839		6.946693		25.577312		21.138964		-3.591367		-1.340321		-63.665890		-11.312944		-6.516990		36.312683		-63.523206		-2.809995		-8.479571		-15.411219		-1.253473		6.598478		-35.325205		-23.289838		-6.036867		36.006515		85.095508		-15.143919		6.060948		57.556852		-30.076874		-21.141087		-16.563835		40.973733		128.377122		-33.552213		-1.069757		85.503363		
1.085657		1.770602		27.987414		90.341972		-0.003309		0.834010		0.551070		17.871151		-3.477903		-2.972213		-64.448553		0.339666		7.920442		23.522376		21.563423		-3.438034		-1.295514		-65.473174		-6.243507		-6.164986		35.300923		-63.758925		-2.717238		-8.376389		-14.455468		-1.176847		6.537223		-33.581424		-23.681119		-4.653091		36.204599		83.921032		-15.751502		5.973935		57.755451		-28.602861		-21.332267		-16.600359		41.053512		128.718094		-33.956861		-0.852369		85.778752		
1.088561		1.827764		28.020773		90.281571		-0.003718		0.821979		0.547563		18.202349		-3.494382		-3.001515		-66.465105		5.381879		8.521398		20.249178		21.837689		-3.278280		-1.357941		-67.315395		-1.132712		-6.183148		32.900749		-64.058527		-2.666800		-8.231803		-13.583021		-1.044242		6.482666		-31.820792		-24.018715		-3.367366		36.378192		83.004069		-16.420446		5.907355		58.165660		-27.078047		-21.518302		-16.713598		41.197208		129.032739		-34.365042		-0.603429		86.131995		
1.091465		1.842984		28.101950		90.233997		-0.004282		0.810175		0.544039		18.429739		-3.667016		-3.257387		-68.269080		9.990594		9.011272		17.749490		22.047435		-3.097712		-1.542030		-69.157739		3.807042		-6.395975		29.733640		-64.409109		-2.618105		-8.124730		-12.703860		-0.934906		6.418243		-30.021251		-24.146955		-3.029536		36.520172		83.507754		-16.614116		5.948411		58.628244		-25.518160		-21.674809		-16.866247		41.344933		129.330363		-34.652800		-0.345625		86.369408		
1.094369		1.863110		28.221536		90.192921		-0.004796		0.798564		0.540405		18.607325		-3.904291		-3.774002		-69.942555		14.128064		8.925807		16.221636		22.206937		-2.967482		-1.866369		-70.893919		8.126048		-7.137698		27.638219		-64.766885		-2.571794		-7.965574		-11.964123		-0.813372		6.271129		-28.219950		-24.251860		-2.730241		36.645522		83.967051		-16.802688		5.997871		58.871214		-23.906457		-21.844584		-17.037320		41.524025		129.489383		-34.836412		-0.166240		86.526651		
1.097273		1.670017		28.191407		90.368919		-0.005607		0.786826		0.536988		18.958670		-4.509019		-4.540373		-71.529800		18.136624		9.286212		13.563993		22.598434		-2.584437		-2.227318		-72.577719		12.267750		-7.617646		24.118096		-65.044547		-2.495542		-8.098877		-11.017759		-0.718679		6.312981		-26.232388		-24.177563		-2.903367		36.607042		85.281837		-17.002620		6.024579		59.403080		-22.289487		-21.936061		-17.423369		41.751127		129.862815		-35.086155		0.085621		86.941259		
1.100177		1.706752		28.323227		90.285482		-0.006077		0.775917		0.533456		19.183763		-4.807498		-5.284252		-72.953068		21.360708		8.646583		13.437265		22.814780		-2.522285		-2.627457		-74.106874		15.411350		-8.842893		23.730816		-65.466601		-2.506409		-7.907684		-10.184871		-0.388903		6.043107		-24.286651		-24.207620		-2.797731		36.707589		85.722341		-17.176882		6.072740		59.390673		-20.490783		-22.085299		-17.644606		41.847399		129.821632		-35.128410		0.177032		86.956281		
